:SAMPLES-PER-SECOND 30
:FULLY-SPECIFIED
:DEGREES
705
root  -60.1007 33.9064 15.3531 5.61725 -5.7786 -2.65643
RightUpLeg  -21.609 -7.04044 -1.22558
RightLeg  7.64071 13.8694 0.95458
RightFoot  18.8536 -0.666888 4.47666
RightToes  -30.1946 -0.145263 -0.253316
Spine  -1.71094 -0.631586 0.97312
Spine1  -3.37595 -1.70734 2.70542
HEad  -44.3354 18.0941 -1.51195
LeftShoulder1  -1.94126e-019 -3.10601e-018 -2.51263e-017
LeftArm  -8.93425 24.3246 -79.5177
LeftForeArm  31.6947 -52.4177 -12.1053
LeftHand  -0.430171 -1.85699 7.0756
RightShoulder  -4.96962e-017 0 -2.36833e-017
RightArm  -46.9446 -30.3734 72.2377
RightForeArm  72.0327 2.98066 0.456648
RightHand  -0.128581 -3.40668 -6.69794
LeftUpLeg  -3.08204 -5.63191 -0.91553
LeftLeg  23.4697 10.6979 3.81754
LeftFoot  -15.5683 -0.426861 -2.96028
LeftToes  1.22459 1.87998e-006 4.79886e-008
706
root  -60.8414 33.6644 16.4581 5.69751 -5.48749 -5.19437
RightUpLeg  -22.8797 -3.55821 1.45568
RightLeg  14.5369 9.01629 1.72261
RightFoot  13.5062 -0.189112 2.08583
RightToes  -33.161 -0.166283 -0.273324
Spine  -1.72608 -0.598885 1.83257
Spine1  -3.45818 -1.64303 4.37548
HEad  -44.4995 20.2343 -1.32809
LeftShoulder1  -1.94126e-019 -3.10601e-018 -2.51263e-017
LeftArm  -10.369 24.9926 -80.271
LeftForeArm  32.1193 -55.057 -13.4636
LeftHand  -0.478337 -1.74056 7.96699
RightShoulder  -4.96962e-017 0 -2.36833e-017
RightArm  -46.7088 -30.1548 70.395
RightForeArm  74.1894 2.62948 0.389081
RightHand  -0.143798 -3.75948 -9.23649
LeftUpLeg  -3.76376 -3.37512 3.07413
LeftLeg  29.0254 8.16006 3.84167
LeftFoot  -17.8043 -0.444053 -2.67287
LeftToes  -1.87564 1.87998e-006 4.79886e-008
707
root  -61.5531 33.6012 17.6366 4.60449 -4.21953 -7.42664
RightUpLeg  -22.0843 -1.91589 4.09657
RightLeg  19.8326 5.80864 1.67721
RightFoot  9.28088 -0.0346049 0.932678
RightToes  -31.0824 -0.151445 -0.259418
Spine  -1.31348 -0.776114 2.61287
Spine1  -2.70062 -1.97163 5.89544
HEad  -44.3143 21.7433 -0.971851
LeftShoulder1  -1.94126e-019 -3.10601e-018 -2.51263e-017
LeftArm  -12.0901 24.4892 -81.5781
LeftForeArm  32.1331 -54.6101 -13.2122
LeftHand  -0.491783 -1.67075 8.26159
RightShoulder  -4.96962e-017 0 -2.36833e-017
RightArm  -46.8869 -28.9638 69.0256
RightForeArm  72.8726 2.96848 0.453412
RightHand  -0.076208 -4.73093 -10.4192
LeftUpLeg  -4.73503 0.337508 7.44876
LeftLeg  36.2898 5.28093 3.36393
LeftFoot  -14.6575 -0.217496 -1.52944
LeftToes  -20.2357 1.87998e-006 4.79886e-008
708
root  -62.1447 33.6594 18.8059 3.43417 -0.695354 -8.82343
RightUpLeg  -19.0528 -5.02357 6.04176
RightLeg  20.5266 5.55649 1.67722
RightFoot  6.30087 -0.00598755 0.616039
RightToes  -30.3431 -0.146291 -0.254344
Spine  -1.1148 -1.38584 2.98694
Spine1  -2.35173 -3.13835 6.6444
HEad  -43.3021 21.9805 0.521297
LeftShoulder1  -1.94126e-019 -3.10601e-018 -2.51263e-017
LeftArm  -12.2832 23.8404 -82.3977
LeftForeArm  31.5602 -52.0422 -11.9386
LeftHand  -0.537573 -1.62023 9.07536
RightShoulder  -4.96962e-017 0 -2.36833e-017
RightArm  -47.7805 -28.3306 68.641
RightForeArm  74.4392 3.0884 0.471461
RightHand  -0.0195169 -5.3615 -13.8883
LeftUpLeg  -7.71933 2.29432 11.1131
LeftLeg  45.186 3.72781 3.28485
LeftFoot  -6.56818 -0.0410574 -0.55399
LeftToes  -46.6226 1.87998e-006 4.79886e-008
709
root  -62.5726 33.7983 19.9389 2.40469 3.60708 -8.99756
RightUpLeg  -15.7394 -9.0702 6.60573
RightLeg  19.8919 4.984 1.44503
RightFoot  3.89948 0.00536461 0.352069
RightToes  -29.2825 -0.139011 -0.246948
Spine  -1.00846 -1.81098 2.80516
Spine1  -2.14287 -3.95567 6.28571
HEad  -42.5728 20.7309 2.56725
LeftShoulder1  -1.94126e-019 -3.10601e-018 -2.51263e-017
LeftArm  -11.7074 22.5663 -82.6416
LeftForeArm  31.1455 -48.2572 -10.3002
LeftHand  -0.486466 -1.81423 8.02208
RightShoulder  -4.96962e-017 0 -2.36833e-017
RightArm  -48.3033 -28.2205 69.3362
RightForeArm  72.6531 3.91356 0.622005
RightHand  0.0187226 -5.64577 -15.4423
LeftUpLeg  -12.19 4.30165 12.8247
LeftLeg  53.8244 3.71624 4.42894
LeftFoot  2.85447 -0.0028749 0.276912
LeftToes  -52.9543 1.87998e-006 4.79886e-008
710
root  -62.904 33.9508 21.0047 1.5011 7.03188 -9.0083
RightUpLeg  -12.4512 -11.1339 6.78808
RightLeg  18.6734 3.52609 0.942208
RightFoot  2.38013 0.00715707 0.171006
RightToes  -27.8739 -0.129558 -0.236921
Spine  -0.832411 -1.68203 2.56847
Spine1  -1.78229 -3.6791 5.80423
HEad  -42.7309 19.4659 3.60466
LeftShoulder1  -1.94126e-019 -3.10601e-018 -2.51263e-017
LeftArm  -9.84123 21.6651 -82.6245
LeftForeArm  30.4403 -44.4844 -8.92488
LeftHand  -0.426818 -1.5631 7.2956
RightShoulder  -4.96962e-017 0 -2.36833e-017
RightArm  -47.165 -28.0137 69.9606
RightForeArm  69.8847 4.94728 0.809547
RightHand  -0.0453488 -5.15253 -15.1402
LeftUpLeg  -16.1088 7.21351 13.32
LeftLeg  60.0276 5.79943 8.61752
LeftFoot  6.57341 -0.0586311 1.18248
LeftToes  -34.2046 1.87998e-006 4.79886e-008
711
root  -63.1153 34.1162 21.9984 1.14545 9.21933 -8.36578
RightUpLeg  -9.5936 -9.77519 6.32095
RightLeg  17.4212 0.0440932 0.00989579
RightFoot  1.22026 0.00494432 0.0587882
RightToes  -25.4919 -0.114141 -0.219445
Spine  -0.721693 -1.13889 2.15488
Spine1  -1.52345 -2.53333 4.94904
HEad  -43.6175 19.3709 3.95257
LeftShoulder1  -1.94126e-019 -3.10601e-018 -2.51263e-017
LeftArm  -9.51072 21.5013 -82.6636
LeftForeArm  31.1623 -40.9106 -7.70159
LeftHand  -0.38178 -1.9444 6.23083
RightShoulder  -4.96962e-017 0 -2.36833e-017
RightArm  -45.4694 -27.1453 70.3225
RightForeArm  68.249 5.63474 0.932218
RightHand  -0.146494 -4.26264 -13.7529
LeftUpLeg  -19.4302 10.5704 11.9785
LeftLeg  63.1981 7.81435 12.9915
LeftFoot  5.32987 -0.0595796 1.44154
LeftToes  -26.7268 1.87998e-006 4.79886e-008
712
root  -63.2033 34.2743 22.9192 1.47824 10.6845 -7.09308
RightUpLeg  -7.6321 -9.84428 5.40166
RightLeg  16.1718 -1.17525 -0.260607
RightFoot  0.806073 0.00310329 0.0696988
RightToes  -25.9963 -0.117345 -0.223199
Spine  -0.791016 -0.422346 1.6025
Spine1  -1.62452 -0.995779 3.82322
HEad  -44.6203 20.7065 3.91368
LeftShoulder1  -1.94126e-019 -3.10601e-018 -2.51263e-017
LeftArm  -10.2523 22.8263 -82.5021
LeftForeArm  31.556 -38.0863 -6.83823
LeftHand  -0.382152 -1.85494 6.30691
RightShoulder  -4.96962e-017 0 -2.36833e-017
RightArm  -43.954 -26.0106 70.56
RightForeArm  68.5193 6.45263 1.07598
RightHand  -0.149498 -4.10888 -12.3347
LeftUpLeg  -22.2373 13.7671 9.05505
LeftLeg  62.7016 9.17035 14.8524
LeftFoot  3.52013 -0.0304497 1.15247
LeftToes  -20.0282 1.87998e-006 4.79886e-008
713
root  -63.2075 34.3837 23.7649 2.30399 12.2193 -6.0293
RightUpLeg  -6.46869 -11.0357 4.54285
RightLeg  15.4041 -1.61512 -0.335064
RightFoot  0.0819224 0.000193879 0.103732
RightToes  -25.0336 -0.11126 -0.216011
Spine  -0.975056 0.293172 1.15593
Spine1  -1.9772 0.523756 2.90832
HEad  -46.0797 22.7815 3.9072
LeftShoulder1  -1.94126e-019 -3.10601e-018 -2.51263e-017
LeftArm  -11.8762 24.9138 -82.2548
LeftForeArm  31.0427 -35.9022 -6.26423
LeftHand  -0.401588 -1.56121 6.87537
RightShoulder  -4.96962e-017 0 -2.36833e-017
RightArm  -40.5427 -24.77 70.2756
RightForeArm  67.0102 7.36007 1.23957
RightHand  -0.177302 -3.78285 -11.9045
LeftUpLeg  -25.016 16.5492 5.41759
LeftLeg  59.2103 10.6324 15.0307
LeftFoot  2.35757 -0.0145812 0.870198
LeftToes  -16.3783 1.87998e-006 4.79886e-008
